# xmcd
#
# Track frame offsets: 
#        150
#        13016
#        26947
#        40499
#        69268
#        81792
#        93488
#        110089
#        122702
#        137434
#        152095
#        166276
#        179810
#        191494
#        204160
#        219223
#        235039
#        247464
#
# Disc length: 3472 seconds
#
# Revision: 3
# Processed by: cddbd v1.5.2PL0 Copyright (c) Steve Scherf et al.
# Submitted via: ExactAudioCopy v0.95b4
#
DISCID=fc0d8e12
DTITLE=Various Artist - Playin' The Blues
DYEAR=2002
DGENRE=Blues
TTITLE0=Joe Turner - Roll 'Em Pete
TTITLE1=Sonny Boy Williamson - Coal And Iceman Blues
TTITLE2=Blind Lemon Jefferson - Black Snake Moan
TTITLE3=Bessie Smith - Empty Bed Blues, Parts 1 and 2
TTITLE4=Lonnie Johnson - Flood Water Blues
TTITLE5=Brownie McGhee - Million Lonesome Women
TTITLE6=Champion Jack Dupree - Too Evil To Cry
TTITLE7=Memphis Minnie - Me And My Chauffeur Blues
TTITLE8=Blind Boy Fuller - Working Man Blues
TTITLE9=Tampa Red - Kingfish Blues
TTITLE10=Bea Booze - See See Rider
TTITLE11=Meade Lux Lewis - Honkey Tonk Train Blues
TTITLE12=Sister Rosetta Tharpe - Trouble In Mind
TTITLE13=Jimmy Yancey - Bear Trap Blues
TTITLE14=Blind Willie McTell - Travelin' Blues
TTITLE15=LeRoy Carr - Blues Before Sunrise
TTITLE16=Georga White - Dead Man Blues
TTITLE17=Leadbelly - Good Morning Blues
EXTD=YEAR: 2002 ID3G:   0
EXTT0=
EXTT1=
EXTT2=
EXTT3=
EXTT4=
EXTT5=
EXTT6=
EXTT7=
EXTT8=
EXTT9=
EXTT10=
EXTT11=
EXTT12=
EXTT13=
EXTT14=
EXTT15=
EXTT16=
EXTT17=
PLAYORDER=
